<svg xmlns="http://www.w3.org/2000/svg" viewBox="0 0 132.66 24.53"><defs><style>.cls-1{fill:#fff;fill-rule:evenodd;}</style></defs><title>Ресурс 3</title><g id="Слой_2" data-name="Слой 2"><g id="Layer_1" data-name="Layer 1"><path class="cls-1" d="M113.89,7.59h-5.35a3.31,3.31,0,0,0-.19-1.21,1.89,1.89,0,0,0-3.24-.09,2,2,0,0,0,0,1.54c.53,1.26,2.62,1.74,3.86,2.33,2.74,1.3,5.47,3.05,5.11,7.21a6.71,6.71,0,0,1-1.9,4.27,7.56,7.56,0,0,1-3.91,2.27,9.37,9.37,0,0,1-5.33-.4,7,7,0,0,1-3.24-3,12.07,12.07,0,0,1-1.78-4.38h5.48a3.71,3.71,0,0,0,1.71,2.73,2,2,0,0,0,3-1.89c-.15-1.59-1.74-2.09-3-2.62-2.69-1.12-5.31-2.46-6-5.57a6.47,6.47,0,0,1,1.52-5.89,8.11,8.11,0,0,1,11.05-.67A6.9,6.9,0,0,1,113.89,7.59Z"/><path class="cls-1" d="M23.18,9.51H16.94A11.47,11.47,0,0,0,15.89,8.1a5.76,5.76,0,0,0-5.51-1.54,5.8,5.8,0,0,0-4.54,5.3,5.9,5.9,0,0,0,3.83,6,6.67,6.67,0,0,0,4.19,0,4.81,4.81,0,0,0,2.84-2.08h6.08c2-4.94,4-10,6-14.92h4.7c2.19,5.51,4.43,10.94,6.65,16.48a6.59,6.59,0,0,1,.43,1.11,8.06,8.06,0,0,1,0,1.3v3.89H35.94c-.36-1.06-.73-2.1-1.08-3.16H27.24c-.4,1-.71,2.12-1.08,3.16H19.67l1.95-4.89s0,0,0-.06a11.67,11.67,0,0,1-4,3.81,10.85,10.85,0,0,1-6.18,1.54A11.56,11.56,0,0,1,0,12.16a11.13,11.13,0,0,1,1.76-6,11.35,11.35,0,0,1,10-5.59,11.33,11.33,0,0,1,7.48,2.73A11.55,11.55,0,0,1,23.18,9.51Zm5.54,6.3c1.52,0,3.12,0,4.6,0-.82-2.33-1.57-4.73-2.38-7C30.22,11.11,29.46,13.44,28.72,15.81Z"/><path class="cls-1" d="M85.55.89h4.7c3,7.6,6.15,15.23,9.13,22.78H92.71c-.32-1.08-.73-2.09-1.06-3.16H84c-.4,1-.72,2.11-1.08,3.16H76.47Q81,12.27,85.55.89Zm0,14.92h4.57q-1.16-3.56-2.35-7.06C87,11.1,86.24,13.44,85.52,15.81Z"/><path class="cls-1" d="M42,1h3.73A4.89,4.89,0,0,1,47,1c.15,0,.44.5.6.72,2.7,3.81,5.41,7.88,8,11.7V1h2c1,2.39,2.14,4.92,3.19,7.4a6.3,6.3,0,0,1,.43,1.05,11.87,11.87,0,0,1,0,1.79v12.4h-5c-2.9-4.06-5.66-8.25-8.54-12.32V23.67H42V1.11S42,1,42,1Z"/><path class="cls-1" d="M59.34,1h6.18c.6,1.31,1.06,2.67,1.57,4,1.53,4,3.14,8.05,4.6,12.16C73.54,11.7,75.67,6.46,77.6,1h5.87c-2.93,7.55-5.84,15.1-8.79,22.64H68.33q-4.48-11.3-9-22.56C59.34,1.06,59.29,1,59.34,1Z"/><path class="cls-1" d="M117.58,6.57C119.74,4.42,122,2.2,124.1,0h-.22c-.4.05-.85.05-1.24.11-1.72,1.68-3.55,3.55-5.33,5.32-.22.23-.67.55-.73.78a6.2,6.2,0,0,0,.06,1.25A8.82,8.82,0,0,0,117.58,6.57Z"/><path class="cls-1" d="M116.75,8a8.32,8.32,0,0,0,.32,1c2.83-2.77,5.81-5.76,8.65-8.59.08-.09.24-.22.19-.27A5.17,5.17,0,0,0,124.69,0C122,2.68,119.36,5.3,116.75,8Z"/><path class="cls-1" d="M117.26,9.46a3.93,3.93,0,0,0,.57.81q2-2.05,4.08-4.08a2,2,0,0,1,1.43-1.43l4-4c.07-.07.22-.13.19-.25a6.2,6.2,0,0,0-1-.29C123.4,3.29,120.29,6.34,117.26,9.46Z"/><path class="cls-1" d="M117,5.24c1.57-1.73,4.89-5,5-5h-.06a9.49,9.49,0,0,0-2.19.84,24.92,24.92,0,0,0-2.24,2.24,6.24,6.24,0,0,0-.78,2.14C116.73,5.52,116.89,5.32,117,5.24Z"/><path class="cls-1" d="M124.1,4.62a3,3,0,0,1,1.13.16q1.88-1.77,3.65-3.65A6.68,6.68,0,0,0,128,.7s0,0,0,0l-3.7,3.72C124.21,4.46,124.06,4.51,124.1,4.62Z"/><path class="cls-1" d="M125.66,5a2.78,2.78,0,0,1,.71.7c1.18-1.24,2.45-2.4,3.62-3.67a5.1,5.1,0,0,0-.73-.59C128.08,2.5,126.85,3.79,125.66,5Z"/><path class="cls-1" d="M127.42,5.16a6.37,6.37,0,0,0-.86,1,2.71,2.71,0,0,1,.13,1.16c1.38-1.31,2.84-2.77,4.19-4.19a2.5,2.5,0,0,0-.65-.76C129.33,3.3,128.34,4.24,127.42,5.16Z"/><path class="cls-1" d="M117.21,18.78,130.64,5.35c.25-.25.89-.79.89-1s-.31-.61-.44-.89c-1.14,1.11-4.08,4-4.41,4.39a5.14,5.14,0,0,1-.72.9c-.31.26-.36.23-.51.36a16.56,16.56,0,0,0-1.19,1.18L116.53,18c-.21.21-.55.53-.57.65,0,.33.24.67.27,1A8.21,8.21,0,0,0,117.21,18.78Z"/><path class="cls-1" d="M118,20l2.81-2.81c.18-.18.49-.44.54-.6a3.64,3.64,0,0,0,.08-.62,2.66,2.66,0,0,1,1.92-2.08,8,8,0,0,0,.81-.11c.29-.09.71-.68,1-.94C127.1,10.83,129,9,131,7c.25-.26.87-.77.92-1a4.31,4.31,0,0,0-.19-1.11s0,0,0,0c-4.42,4.5-8.93,9-13.37,13.4-.64.63-1.29,1.25-1.87,1.94.14.29.3.56.43.84A10.28,10.28,0,0,0,118,20Z"/><path class="cls-1" d="M131.66,8.24a4.85,4.85,0,0,0,.22-1.62c-2.27,2.3-4.7,4.65-6.95,6.94,0,0-.15.13-.13.22a4.69,4.69,0,0,1,1,.32L130.93,9A4.6,4.6,0,0,0,131.66,8.24Z"/><path class="cls-1" d="M123,9.05a2.39,2.39,0,0,1-.73-.65L117,13.59a5,5,0,0,0-.73.76,6.49,6.49,0,0,0-.41,1.75C118.23,13.85,120.62,11.4,123,9.05Z"/><path class="cls-1" d="M124.45,9.57c.08-.09.24-.21.19-.27a3,3,0,0,1-1.25-.09c-2.12,2.09-4.47,4.48-6.64,6.65-.28.28-.86.7-.92,1a5,5,0,0,0,0,1.25C118.69,15.33,121.64,12.37,124.45,9.57Z"/><path class="cls-1" d="M128.72,13.75A24.76,24.76,0,0,0,127,15.56a3.9,3.9,0,0,1,.22,1.08c1.33-1.26,2.74-2.67,4-4.05a3.93,3.93,0,0,0-.68-.73Q129.64,12.79,128.72,13.75Z"/><path class="cls-1" d="M129.37,16.46c.87-.88,1.79-1.72,2.59-2.65a4.11,4.11,0,0,0-.49-.84c-1,.89-2.19,2.2-3.27,3.27-.34.34-.9.74-1,1.11s-.16.66-.3.94a2.54,2.54,0,0,1-2.24,1.54l-3.13,3.11a8,8,0,0,0-1,1,6.47,6.47,0,0,0,1,.27C124.15,21.74,126.77,19.05,129.37,16.46Z"/><path class="cls-1" d="M131.36,16.46c.22-.22,1.07-.94,1.09-1.19a2.81,2.81,0,0,0-.33-1c-3.25,3.22-6.56,6.58-9.78,9.81-.1.09-.29.2-.24.29.27,0,.76.23,1.16.14a3,3,0,0,0,.59-.54Z"/><path class="cls-1" d="M132.55,15.83c-2.89,2.8-5.8,5.82-8.7,8.7h.84c.13-.06.4,0,.57-.05s.67-.62.94-.89c2.18-2.17,4.33-4.37,6.46-6.46V16.7C132.6,16.43,132.63,16.08,132.55,15.83Z"/><path class="cls-1" d="M131.82,20.45c-.11.13-.23.25-.35.37-1,1.05-2.15,2.09-3.07,3.12A9.36,9.36,0,0,0,132.27,20l-.46.48Z"/><path class="cls-1" d="M121.64,18.24a6.27,6.27,0,0,1-.33-1.06c-1.37,1.44-2.83,2.79-4.19,4.25.21.24.39.49.6.73C119.06,20.88,120.37,19.58,121.64,18.24Z"/><path class="cls-1" d="M126.15,24.21c-.05.05-.18.09-.14.19a10.76,10.76,0,0,0,1.76-.43,7.66,7.66,0,0,0,1.14-1.14c.85-.85,1.44-1.45,2.27-2.27a7.08,7.08,0,0,0,1.13-1.13,5.43,5.43,0,0,0,.3-1.7C130.49,19.85,128.21,22.05,126.15,24.21Z"/><path class="cls-1" d="M122.58,19.4a3.1,3.1,0,0,1-.7-.7c-1.26,1.29-2.55,2.54-3.81,3.84a7.59,7.59,0,0,0,.78.59C120.11,21.9,121.35,20.65,122.58,19.4Z"/><path class="cls-1" d="M124,19.83a2.8,2.8,0,0,1-1.11-.24c-1.25,1.24-2.52,2.47-3.73,3.76.27.16.57.31.87.46C121.37,22.51,122.7,21.19,124,19.83Z"/><path class="cls-1" d="M118.77,11.15q.83-.81,1.62-1.62L121.93,8a2.13,2.13,0,0,1-.24-1.11c-1.22,1.14-2.48,2.45-3.7,3.68l.35.32h0a16.24,16.24,0,0,0-1.52,2.2l0,0,0,.06Z"/><path class="cls-1" d="M131.25,9.22h0l-.94.95-.83.83L128,12.44l-.84.86c-.29.29-.59.58-.87.88h0c-.06.05-.11.11-.16.16a2,2,0,0,1,.59.76c1.24-1.14,2.37-2.38,3.57-3.57l-.4-.31a15.23,15.23,0,0,0,1.49-2.16l0,0,0-.06Z"/></g></g></svg>